Coordinates
version=1
nRows=11
nColumns=38
inDegrees=no

Units are S.I. units (second, meters, Newtons, ...)
If the header above contains a line with 'inDegrees', this indicates whether rotational values are in degrees (yes) or radians (no).

endheader
time	pelvis_tilt	pelvis_list	pelvis_rotation	pelvis_tx	pelvis_ty	pelvis_tz	hip_flexion_r	hip_adduction_r	hip_rotation_r	knee_angle_r	ankle_angle_r	subtalar_angle_r	mtp_angle_r	hip_flexion_l	hip_adduction_l	hip_rotation_l	knee_angle_l	ankle_angle_l	subtalar_angle_l	mtp_angle_l	lumbar_extension	lumbar_bending	lumbar_rotation	arm_flex_r	arm_add_r	arm_rot_r	elbow_flex_r	pro_sup_r	wrist_flex_r	wrist_dev_r	arm_flex_l	arm_add_l	arm_rot_l	elbow_flex_l	pro_sup_l	wrist_flex_l	wrist_dev_l
2.13	-0.325177	0.00136829	0.0465899	1.01906	0.965994	-0.347618	0.268478	-0.00330281	-0.0484207	-1.85079	0.0594451	0.1	0.00542556	0.92176	0.00781543	-0.387087	-0.732003	0.320259	0.1	-0.0300777	0.123703	-0.0357533	0.138461	-0.430571	-0.277266	-0.125296	1.77193	2.06594	-0.0212143	0.00244308	-0.811614	-0.272739	-0.222973	2.0069	1.79789	0.0715747	-0.00496239
2.14	-0.324751	0.0133778	0.0496836	1.01733	0.960808	-0.347922	0.33302	-0.0328576	-0.0516392	-1.94017	0.102052	0.1	0.00542556	0.909196	0.020249	-0.372996	-0.804559	0.365961	0.1	-0.0300777	0.119203	-0.0491267	0.119454	-0.442099	-0.274968	-0.134864	1.70458	2.05168	-0.0212143	0.00244308	-0.761084	-0.268375	-0.201419	1.97323	1.79359	0.0715747	-0.00496239
2.15	-0.32435	0.0271282	0.0508054	1.01509	0.956478	-0.348105	0.404011	-0.0613072	-0.046377	-2.01693	0.142577	0.1	0.00542556	0.89148	0.0357438	-0.355226	-0.86968	0.421283	0.1	-0.0300777	0.113835	-0.063803	0.101282	-0.454426	-0.273141	-0.143969	1.64748	2.03317	-0.0212143	0.00244308	-0.706726	-0.2646	-0.179599	1.93937	1.79061	0.0715747	-0.00496239
2.16	-0.323827	0.0416463	0.0494189	1.01245	0.953118	-0.348142	0.480417	-0.0861346	-0.0324698	-2.07914	0.179472	0.1	0.00542556	0.866663	0.0530181	-0.33614	-0.921961	0.480814	0.1	-0.0300777	0.10789	-0.0784263	0.0844632	-0.468656	-0.272032	-0.153033	1.60304	2.00949	-0.0212143	0.00244308	-0.650326	-0.260868	-0.158985	1.90823	1.78959	0.0715747	-0.00496239
2.17	-0.323084	0.0557171	0.0452411	1.00963	0.950929	-0.348006	0.560665	-0.105197	-0.0111225	-2.12506	0.211562	0.1	0.00542556	0.833651	0.0705426	-0.317775	-0.958107	0.538795	0.1	-0.0300777	0.101912	-0.0915923	0.0691372	-0.485686	-0.271884	-0.162401	1.57275	1.98112	-0.0212143	0.00244308	-0.594225	-0.256521	-0.141255	1.88309	1.79079	0.0715747	-0.00496239
2.18	-0.322023	0.0680446	0.0382803	1.00691	0.950088	-0.347691	0.642719	-0.116936	0.0152995	-2.15333	0.238163	0.1	0.00542556	0.792225	0.0867227	-0.301601	-0.976932	0.589794	0.1	-0.0300777	0.096596	-0.10192	0.055155	-0.506122	-0.272872	-0.172354	1.55699	1.95	-0.0212143	0.00244308	-0.540958	-0.250927	-0.127947	1.86716	1.79389	0.0715747	-0.00496239
2.19	-0.3207	0.0774345	0.0287687	1.00457	0.950639	-0.347235	0.724164	-0.120481	0.0436957	-2.16304	0.259076	0.1	0.00542556	0.7428	0.100048	-0.288487	-0.978981	0.629039	0.1	-0.0300777	0.0925526	-0.108101	0.042284	-0.530304	-0.275027	-0.183194	1.555	1.91917	-0.0212143	0.00244308	-0.492817	-0.243625	-0.120093	1.8629	1.79801	0.0715747	-0.00496239
2.2	-0.319163	0.0828902	0.0170437	1.00282	0.95254	-0.34669	0.802384	-0.115692	0.0707662	-2.15384	0.274501	0.1	0.00542556	0.686176	0.109243	-0.278854	-0.96595	0.652572	0.1	-0.0300777	0.0902274	-0.109042	0.0304146	-0.55837	-0.278194	-0.195276	1.56515	1.89201	-0.0212143	0.00244308	-0.451474	-0.234425	-0.117945	1.87162	1.80191	0.0715747	-0.00496239
2.21	-0.317406	0.0837532	0.00345466	1.00183	0.955731	-0.346089	0.874783	-0.103117	0.0935365	-2.12586	0.284878	0.1	0.00542556	0.623311	0.113413	-0.272872	-0.940096	0.657368	0.1	-0.0300777	0.0898417	-0.104004	0.0196595	-0.590308	-0.282028	-0.208963	1.58522	1.87125	-0.0212143	0.00244308	-0.417798	-0.223446	-0.120931	1.89326	1.80423	0.0715747	-0.00496239
2.22	-0.315379	0.0798281	-0.0116628	1.00175	0.960137	-0.345441	0.939039	-0.0839162	0.10976	-2.07971	0.290735	0.1	0.00542556	0.55521	0.112177	-0.270575	-0.903788	0.641503	0.1	-0.0300777	0.0913919	-0.0927534	0.0103038	-0.625953	-0.286057	-0.224492	1.61271	1.85815	-0.0212143	0.00244308	-0.391877	-0.2111	-0.127844	1.92653	1.80385	0.0715747	-0.00496239
2.23	-0.313056	0.071442	-0.0279565	1.00262	0.965637	-0.344741	0.993343	-0.0597544	0.11814	-2.01636	0.292618	0.1	0.00542556	0.482936	0.105756	-0.271872	-0.859266	0.604324	0.1	-0.0300777	0.0946879	-0.0756805	0.00263879	-0.664938	-0.289782	-0.241834	1.64517	1.85211	-0.0212143	0.00244308	-0.373212	-0.198025	-0.137174	1.96933	1.8002	0.0715747	-0.00496239
